<svg xmlns="http://www.w3.org/2000/svg" xmlns:xlink="http://www.w3.org/1999/xlink" width="280" zoomAndPan="magnify" viewBox="0 0 210 44.999999" height="60" preserveAspectRatio="xMidYMid meet" version="1.0"><defs><g/><clipPath id="9b80e618fd"><path d="M 47.761719 3 L 90 3 L 90 45 L 47.761719 45 Z M 47.761719 3 " clip-rule="nonzero"/></clipPath></defs><g clip-path="url(#9b80e618fd)"><path fill="#0080ff" d="M 68.578125 45.015625 L 68.578125 36.949219 C 77.125 36.949219 83.757812 28.492188 80.476562 19.492188 C 79.863281 17.820312 78.929688 16.355469 77.671875 15.097656 C 76.414062 13.839844 74.949219 12.90625 73.277344 12.296875 C 64.285156 9.039062 55.8125 15.644531 55.8125 24.1875 L 47.761719 24.1875 C 47.761719 10.574219 60.929688 -0.0390625 75.210938 4.417969 C 81.457031 6.375 86.421875 11.332031 88.359375 17.558594 C 92.820312 31.855469 82.222656 45.019531 68.578125 45.019531 Z M 68.578125 45.015625 " fill-opacity="1" fill-rule="nonzero"/></g><path fill="#0080ff" d="M 60.574219 36.972656 L 60.574219 28.953125 L 68.597656 28.953125 L 68.597656 36.972656 Z M 54.390625 43.152344 L 54.390625 36.972656 L 60.574219 36.972656 L 60.574219 43.152344 Z M 54.390625 36.972656 L 49.222656 36.972656 L 49.222656 31.808594 L 54.390625 31.808594 Z M 54.390625 36.972656 " fill-opacity="1" fill-rule="nonzero"/><g fill="#0080ff" fill-opacity="1"><g transform="translate(92.7602, 15.628257)"><g><path d="M 5.160156 0.167969 C 7.527344 0.167969 9.539062 -1.226562 9.539062 -3.59375 C 9.539062 -8.289062 3.699219 -7.128906 3.699219 -9.328125 C 3.699219 -10.046875 4.25 -10.382812 4.925781 -10.382812 C 5.648438 -10.382812 6.367188 -9.980469 7 -9.285156 L 8.859375 -11.0625 C 7.929688 -12.140625 6.515625 -12.859375 4.949219 -12.859375 C 2.941406 -12.859375 0.886719 -11.652344 0.886719 -9.113281 C 0.886719 -4.800781 6.746094 -5.835938 6.746094 -3.617188 C 6.746094 -2.917969 6.152344 -2.453125 5.179688 -2.453125 C 4.019531 -2.453125 3.109375 -3.109375 2.644531 -4.101562 L 0.339844 -2.664062 C 1.164062 -1.078125 2.941406 0.167969 5.160156 0.167969 Z M 5.160156 0.167969 "/></g></g></g><g fill="#0080ff" fill-opacity="1"><g transform="translate(103.528872, 15.628257)"><g><path d="M 7.296875 0.167969 C 10.914062 0.167969 13.808594 -2.75 13.808594 -6.34375 C 13.808594 -9.941406 10.914062 -12.859375 7.296875 -12.859375 C 3.699219 -12.859375 0.78125 -9.941406 0.78125 -6.34375 C 0.78125 -2.75 3.699219 0.167969 7.296875 0.167969 Z M 7.296875 -2.558594 C 5.160156 -2.558594 3.53125 -4.207031 3.53125 -6.34375 C 3.53125 -8.480469 5.160156 -10.128906 7.296875 -10.128906 C 9.453125 -10.128906 11.082031 -8.480469 11.082031 -6.34375 C 11.082031 -4.207031 9.453125 -2.558594 7.296875 -2.558594 Z M 7.296875 -2.558594 "/></g></g></g><g fill="#0080ff" fill-opacity="1"><g transform="translate(118.886646, 15.628257)"><g><path d="M 7.296875 0.167969 C 9.8125 0.167969 11.992188 -1.246094 13.070312 -3.320312 L 10.660156 -4.566406 C 10.046875 -3.363281 8.796875 -2.558594 7.296875 -2.558594 C 5.160156 -2.558594 3.53125 -4.207031 3.53125 -6.34375 C 3.53125 -8.480469 5.160156 -10.128906 7.296875 -10.128906 C 8.796875 -10.128906 10.046875 -9.328125 10.660156 -8.121094 L 13.070312 -9.367188 C 11.992188 -11.441406 9.8125 -12.859375 7.296875 -12.859375 C 3.699219 -12.859375 0.78125 -9.941406 0.78125 -6.34375 C 0.78125 -2.75 3.699219 0.167969 7.296875 0.167969 Z M 7.296875 0.167969 "/></g></g></g><g fill="#0080ff" fill-opacity="1"><g transform="translate(133.250468, 15.628257)"><g><path d="M 1.351562 0 L 4.144531 0 L 4.144531 -12.6875 L 1.351562 -12.6875 Z M 1.351562 0 "/></g></g></g><g fill="#0080ff" fill-opacity="1"><g transform="translate(139.47234, 15.628257)"><g><path d="M 9.007812 0 L 11.992188 0 L 7.421875 -12.6875 L 4.292969 -12.6875 L -0.273438 0 L 2.707031 0 L 3.488281 -2.390625 L 8.226562 -2.390625 Z M 4.230469 -4.714844 L 5.859375 -9.75 L 7.488281 -4.714844 Z M 4.230469 -4.714844 "/></g></g></g><g fill="#0080ff" fill-opacity="1"><g transform="translate(151.932851, 15.628257)"><g><path d="M 4.039062 -2.472656 L 4.039062 -12.6875 L 1.246094 -12.6875 L 1.246094 0 L 8.246094 0 L 8.246094 -2.472656 Z M 4.039062 -2.472656 "/></g></g></g><g fill="#0080ff" fill-opacity="1"><g transform="translate(92.7602, 39.149235)"><g><path d="M 6.640625 -12.6875 L 1.246094 -12.6875 L 1.246094 0 L 4.039062 0 L 4.039062 -5.140625 L 6.640625 -5.140625 C 8.777344 -5.140625 10.425781 -6.726562 10.425781 -8.859375 C 10.425781 -10.976562 8.777344 -12.6875 6.640625 -12.6875 Z M 6.195312 -7.445312 L 4.039062 -7.445312 L 4.039062 -10.234375 L 6.195312 -10.234375 C 7.085938 -10.234375 7.761719 -9.664062 7.761719 -8.839844 C 7.761719 -7.996094 7.085938 -7.445312 6.195312 -7.445312 Z M 6.195312 -7.445312 "/></g></g></g><g fill="#0080ff" fill-opacity="1"><g transform="translate(104.015277, 39.149235)"><g><path d="M 1.351562 0 L 4.144531 0 L 4.144531 -12.6875 L 1.351562 -12.6875 Z M 1.351562 0 "/></g></g></g><g fill="#0080ff" fill-opacity="1"><g transform="translate(110.237148, 39.149235)"><g><path d="M 11.503906 0 L 7.128906 -6.554688 L 11.273438 -12.6875 L 8.078125 -12.6875 L 5.625 -8.839844 L 3.171875 -12.6875 L -0.0195312 -12.6875 L 4.125 -6.535156 L -0.273438 0 L 2.941406 0 L 5.625 -4.25 L 8.3125 0 Z M 11.503906 0 "/></g></g></g><g fill="#0080ff" fill-opacity="1"><g transform="translate(122.232404, 39.149235)"><g><path d="M 8.988281 -10.234375 L 8.988281 -12.6875 L 1.351562 -12.6875 L 1.351562 0 L 8.988281 0 L 8.988281 -2.453125 L 4.144531 -2.453125 L 4.144531 -5.117188 L 8.289062 -5.117188 L 8.289062 -7.570312 L 4.144531 -7.570312 L 4.144531 -10.234375 Z M 8.988281 -10.234375 "/></g></g></g><g fill="#0080ff" fill-opacity="1"><g transform="translate(132.831896, 39.149235)"><g><path d="M 4.039062 -2.472656 L 4.039062 -12.6875 L 1.246094 -12.6875 L 1.246094 0 L 8.246094 0 L 8.246094 -2.472656 Z M 4.039062 -2.472656 "/></g></g></g><g fill="#0080ff" fill-opacity="1"><g transform="translate(141.86644, 39.149235)"><g><path d="M 5.160156 0.167969 C 7.527344 0.167969 9.539062 -1.226562 9.539062 -3.59375 C 9.539062 -8.289062 3.699219 -7.128906 3.699219 -9.328125 C 3.699219 -10.046875 4.25 -10.382812 4.925781 -10.382812 C 5.648438 -10.382812 6.367188 -9.980469 7 -9.285156 L 8.859375 -11.0625 C 7.929688 -12.140625 6.515625 -12.859375 4.949219 -12.859375 C 2.941406 -12.859375 0.886719 -11.652344 0.886719 -9.113281 C 0.886719 -4.800781 6.746094 -5.835938 6.746094 -3.617188 C 6.746094 -2.917969 6.152344 -2.453125 5.179688 -2.453125 C 4.019531 -2.453125 3.109375 -3.109375 2.644531 -4.101562 L 0.339844 -2.664062 C 1.164062 -1.078125 2.941406 0.167969 5.160156 0.167969 Z M 5.160156 0.167969 "/></g></g></g></svg>